<svg xmlns="http://www.w3.org/2000/svg" viewBox="0 0 64 64" width="64" height="64"><g fill="none" stroke="#2B2118" stroke-width="3.5" stroke-linecap="round" stroke-linejoin="round"><rect x="8" y="8" width="48" height="48" rx="3"/><path d="M8 22h48M8 34h48M8 46h48" stroke-width="2"/><rect x="12" y="18" width="6" height="8" rx="2.5" fill="#2B2118" stroke="none"/><rect x="19" y="18" width="6" height="8" rx="2.5" fill="#2B2118" stroke="none"/><rect x="12" y="30" width="6" height="8" rx="2.5" fill="#2B2118" stroke="none"/><rect x="19" y="30" width="6" height="8" rx="2.5" fill="#2B2118" stroke="none"/><rect x="26" y="30" width="6" height="8" rx="2.5" fill="#2B2118" stroke="none"/><rect x="12" y="42" width="6" height="8" rx="2.5" fill="#2B2118" stroke="none"/><rect x="46" y="18" width="6" height="8" rx="2.5" fill="#D4A82F" stroke="none"/><rect x="39" y="18" width="6" height="8" rx="2.5" fill="#D4A82F" stroke="none"/><rect x="46" y="30" width="6" height="8" rx="2.5" fill="#D4A82F" stroke="none"/><rect x="32" y="42" width="6" height="8" rx="2.5" fill="#D4A82F" stroke="none"/><rect x="39" y="42" width="6" height="8" rx="2.5" fill="#D4A82F" stroke="none"/><rect x="46" y="42" width="6" height="8" rx="2.5" fill="#D4A82F" stroke="none"/></g></svg>
